<svg xmlns:xlink="http://www.w3.org/1999/xlink" width="512" xmlns="http://www.w3.org/2000/svg" height="512" id="screenshot-f7015a6f-1a90-8034-8002-f3aae57d21d0" viewBox="0 0 512 512" style="-webkit-print-color-adjust: exact;" fill="none" version="1.1"><g id="shape-f7015a6f-1a90-8034-8002-f3aae57d21d0"><defs><clipPath class="frame-clip-def frame-clip" id="frame-clip-f7015a6f-1a90-8034-8002-f3aae57d21d0-rumext-id-1"><rect rx="0" ry="0" x="0" y="0" width="512" height="512" transform="matrix(1.000000, 0.000000, 0.000000, 1.000000, 0.000000, 0.000000)"/></clipPath></defs><g clip-path="url(#frame-clip-f7015a6f-1a90-8034-8002-f3aae57d21d0-rumext-id-1)" fill="none"><clipPath class="frame-clip-def frame-clip" id="frame-clip-f7015a6f-1a90-8034-8002-f3aae57d21d0-rumext-id-1"><rect rx="0" ry="0" x="0" y="0" width="512" height="512" transform="matrix(1.000000, 0.000000, 0.000000, 1.000000, 0.000000, 0.000000)"/></clipPath><g class="fills" id="fills-f7015a6f-1a90-8034-8002-f3aae57d21d0"><rect rx="0" ry="0" x="0" y="0" transform="matrix(1.000000, 0.000000, 0.000000, 1.000000, 0.000000, 0.000000)" width="512" height="512" class="frame-background"/></g><g class="frame-children"><g id="shape-f7015a6f-1a90-8034-8002-f3aae57d21d1"><defs><linearGradient id="fill-color-gradient_rumext-id-2_0" x1="0.4253814239193385" y1="0.39855231881377473" x2="0.4043046074680289" y2="1.0476508966944063" gradientTransform="matrix(1.000000, 0.000000, 0.000000, 1.000000, 0.000000, 0.000000)"><stop offset="0" stop-color="#f3f3f3" stop-opacity="1"/><stop offset="1" stop-color="#ffb600" stop-opacity="1"/></linearGradient><pattern patternUnits="userSpaceOnUse" x="45.34536401971252" y="252.46666666666664" height="159.53333333333336" width="373.5811611576187" data-loading="false" patternTransform="" id="fill-0-rumext-id-2"><g><rect width="373.5811611576187" height="159.53333333333336" style="fill: url(&quot;#fill-color-gradient_rumext-id-2_0&quot;);"/></g></pattern></defs><g class="fills" id="fills-f7015a6f-1a90-8034-8002-f3aae57d21d1"><path rx="0" ry="0" d="M132.000,369.000L56.000,300.000C56.000,300.000,38.933,267.800,48.000,261.000C73.600,241.800,108.000,261.000,108.000,261.000C108.000,261.000,143.204,333.893,156.000,329.000C165.871,325.226,162.830,297.275,170.000,298.000C222.163,303.275,195.833,339.457,245.000,338.000C285.833,336.790,283.463,283.913,305.000,294.000C321.537,301.745,301.576,324.724,302.000,344.000C302.375,361.008,336.000,363.000,336.000,363.000C336.000,363.000,351.750,325.393,406.000,335.000C415.750,336.727,424.865,363.003,414.000,375.000C392.865,398.337,393.975,375.443,358.000,388.000C323.309,400.109,308.000,412.000,308.000,412.000L185.000,408.000L132.000,369.000Z" fill="url(#fill-0-rumext-id-2)"/></g></g></g></g></g></svg>