<svg xmlns:xlink="http://www.w3.org/1999/xlink" width="512" xmlns="http://www.w3.org/2000/svg" height="512" id="screenshot-f7015a6f-1a90-8034-8002-f3ac36f5d4cb" viewBox="0 0 512 512" style="-webkit-print-color-adjust: exact;" fill="none" version="1.1"><g id="shape-f7015a6f-1a90-8034-8002-f3ac36f5d4cb"><defs><clipPath class="frame-clip-def frame-clip" id="frame-clip-f7015a6f-1a90-8034-8002-f3ac36f5d4cb-rumext-id-1"><rect rx="0" ry="0" x="0" y="0" width="512" height="512" transform="matrix(1.000000, 0.000000, 0.000000, 1.000000, 0.000000, 0.000000)"/></clipPath></defs><g clip-path="url(#frame-clip-f7015a6f-1a90-8034-8002-f3ac36f5d4cb-rumext-id-1)" fill="none"><clipPath class="frame-clip-def frame-clip" id="frame-clip-f7015a6f-1a90-8034-8002-f3ac36f5d4cb-rumext-id-1"><rect rx="0" ry="0" x="0" y="0" width="512" height="512" transform="matrix(1.000000, 0.000000, 0.000000, 1.000000, 0.000000, 0.000000)"/></clipPath><g class="fills" id="fills-f7015a6f-1a90-8034-8002-f3ac36f5d4cb"><rect rx="0" ry="0" x="0" y="0" transform="matrix(1.000000, 0.000000, 0.000000, 1.000000, 0.000000, 0.000000)" width="512" height="512" class="frame-background"/></g><g class="frame-children"><g id="shape-f7015a6f-1a90-8034-8002-f3ac36f5d4cc"><defs><linearGradient id="fill-color-gradient_rumext-id-2_0" x1="0.4253814239193385" y1="0.39855231881377473" x2="0.4043046074680289" y2="1.0476508966944063" gradientTransform="matrix(1.000000, 0.000000, 0.000000, 1.000000, 0.000000, 0.000000)"><stop offset="0" stop-color="#ffeab8" stop-opacity="1"/><stop offset="1" stop-color="#ff9900" stop-opacity="1"/></linearGradient><pattern patternUnits="userSpaceOnUse" x="46" y="209" height="126.06957914412692" width="420.54598526461905" data-loading="false" patternTransform="" id="fill-0-rumext-id-2"><g><rect width="420.54598526461905" height="126.06957914412692" style="fill: url(&quot;#fill-color-gradient_rumext-id-2_0&quot;);"/></g></pattern></defs><g class="fills" id="fills-f7015a6f-1a90-8034-8002-f3ac36f5d4cc"><path rx="0" ry="0" d="M114.000,322.000C59.227,317.077,46.000,294.000,46.000,294.000C46.000,294.000,88.749,284.364,100.000,283.000C133.000,279.000,143.892,301.048,173.000,274.000C175.470,271.704,199.951,281.337,209.000,271.000C225.690,251.933,230.000,209.000,230.000,209.000C230.000,209.000,240.830,263.275,248.000,264.000C300.163,269.275,223.036,227.090,272.203,225.634C313.036,224.424,276.463,235.913,298.000,246.000C314.537,253.745,328.778,212.358,329.203,231.634C329.577,248.642,335.000,260.000,335.000,260.000C335.000,260.000,353.750,278.393,408.000,288.000C417.750,289.727,476.067,288.637,465.203,300.634C444.067,323.970,457.000,315.000,414.000,316.000C392.628,316.497,362.000,325.000,362.000,325.000C362.000,325.000,333.456,336.044,305.000,335.000C275.641,333.923,246.076,320.771,228.203,321.634C166.732,324.601,203.000,330.000,114.000,322.000Z" fill="url(#fill-0-rumext-id-2)"/></g></g></g></g></g></svg>