<svg xmlns:xlink="http://www.w3.org/1999/xlink" width="1030" xmlns="http://www.w3.org/2000/svg" height="512" id="screenshot-32eb1c6e-9ee6-8089-8002-f3911d5c0f54" viewBox="0 0 1030 512" style="-webkit-print-color-adjust: exact;" fill="none" version="1.1"><g id="shape-32eb1c6e-9ee6-8089-8002-f3911d5c0f54"><defs><clipPath class="frame-clip-def frame-clip" id="frame-clip-32eb1c6e-9ee6-8089-8002-f3911d5c0f54-rumext-id-1"><rect rx="0" ry="0" x="0" y="0" width="1030" height="512" transform="matrix(1.000000, 0.000000, 0.000000, 1.000000, 0.000000, 0.000000)"/></clipPath></defs><g clip-path="url(#frame-clip-32eb1c6e-9ee6-8089-8002-f3911d5c0f54-rumext-id-1)" fill="none"><clipPath class="frame-clip-def frame-clip" id="frame-clip-32eb1c6e-9ee6-8089-8002-f3911d5c0f54-rumext-id-1"><rect rx="0" ry="0" x="0" y="0" width="1030" height="512" transform="matrix(1.000000, 0.000000, 0.000000, 1.000000, 0.000000, 0.000000)"/></clipPath><g class="fills" id="fills-32eb1c6e-9ee6-8089-8002-f3911d5c0f54"><rect rx="0" ry="0" x="0" y="0" transform="matrix(1.000000, 0.000000, 0.000000, 1.000000, 0.000000, 0.000000)" width="1030" height="512" class="frame-background"/></g><g class="frame-children"><g id="shape-32eb1c6e-9ee6-8089-8002-f39278bbf463"><defs><linearGradient id="fill-color-gradient_rumext-id-2_0" x1="0.5" y1="0" x2="0.5" y2="1" gradientTransform=""><stop offset="0" stop-color="#0e0b03" stop-opacity="1"/><stop offset="1" stop-color="#57431a" stop-opacity="1"/></linearGradient><pattern patternUnits="userSpaceOnUse" x="2" y="414" height="93" width="1025" data-loading="false" id="fill-0-rumext-id-2"><g><rect width="1025" height="93" style="fill: url(&quot;#fill-color-gradient_rumext-id-2_0&quot;);"/></g></pattern></defs><g class="fills" id="fills-32eb1c6e-9ee6-8089-8002-f39278bbf463"><rect rx="0" ry="0" x="2" y="414" transform="matrix(1.000000, 0.000000, 0.000000, 1.000000, 0.000000, 0.000000)" width="1025" height="93" fill="url(#fill-0-rumext-id-2)"/></g></g><g id="shape-32eb1c6e-9ee6-8089-8002-f3931ffbd4fa"><defs><radialGradient id="fill-color-gradient_rumext-id-3_0" cx="0.5" cy="0.5" r="0.5" gradientTransform="matrix(-1.000000, 0.000000, -0.000000, -1.000000, 1.000000, 1.000000)"><stop offset="0" stop-color="#d4a83b" stop-opacity="1"/><stop offset="1" stop-color="#785920" stop-opacity="1"/></radialGradient><pattern patternUnits="userSpaceOnUse" x="5" y="323" height="93" width="1025" data-loading="false" id="fill-0-rumext-id-3"><g><rect width="1025" height="93" style="fill: url(&quot;#fill-color-gradient_rumext-id-3_0&quot;);"/></g></pattern></defs><g class="fills" id="fills-32eb1c6e-9ee6-8089-8002-f3931ffbd4fa"><rect rx="0" ry="0" x="5" y="323" transform="matrix(1.000000, 0.000000, 0.000000, 1.000000, 0.000000, 0.000000)" width="1025" height="93" fill="url(#fill-0-rumext-id-3)"/></g></g><g id="shape-32eb1c6e-9ee6-8089-8002-f391929512c1"><defs><radialGradient id="fill-color-gradient_rumext-id-4_0" cx="0.5" cy="0.5" r="0.5" gradientTransform="matrix(-1.000000, 0.000000, -0.000000, -1.000000, 1.000000, 1.000000)"><stop offset="0" stop-color="#765b20" stop-opacity="1"/><stop offset="1" stop-color="#251e0e" stop-opacity="1"/></radialGradient><pattern patternUnits="userSpaceOnUse" x="0" y="204" height="119" width="1030" data-loading="false" id="fill-0-rumext-id-4"><g><rect width="1030" height="119" style="fill: url(&quot;#fill-color-gradient_rumext-id-4_0&quot;);"/></g></pattern></defs><g class="fills" id="fills-32eb1c6e-9ee6-8089-8002-f391929512c1"><rect rx="0" ry="0" x="0" y="204" transform="matrix(1.000000, 0.000000, 0.000000, 1.000000, 0.000000, 0.000000)" width="1030" height="119" fill="url(#fill-0-rumext-id-4)"/></g></g></g></g></g></svg>