<svg xmlns:xlink="http://www.w3.org/1999/xlink" width="1030" xmlns="http://www.w3.org/2000/svg" height="512" id="screenshot-32eb1c6e-9ee6-8089-8002-f390a2d6fe1b" viewBox="0 0 1030 512" style="-webkit-print-color-adjust: exact;" fill="none" version="1.1"><g id="shape-32eb1c6e-9ee6-8089-8002-f390a2d6fe1b"><defs><clipPath class="frame-clip-def frame-clip" id="frame-clip-32eb1c6e-9ee6-8089-8002-f390a2d6fe1b-rumext-id-1"><rect rx="0" ry="0" x="0" y="0" width="1030" height="512" transform="matrix(1.000000, 0.000000, 0.000000, 1.000000, 0.000000, 0.000000)"/></clipPath></defs><g clip-path="url(#frame-clip-32eb1c6e-9ee6-8089-8002-f390a2d6fe1b-rumext-id-1)" fill="none"><clipPath class="frame-clip-def frame-clip" id="frame-clip-32eb1c6e-9ee6-8089-8002-f390a2d6fe1b-rumext-id-1"><rect rx="0" ry="0" x="0" y="0" width="1030" height="512" transform="matrix(1.000000, 0.000000, 0.000000, 1.000000, 0.000000, 0.000000)"/></clipPath><g class="fills" id="fills-32eb1c6e-9ee6-8089-8002-f390a2d6fe1b"><rect rx="0" ry="0" x="0" y="0" transform="matrix(1.000000, 0.000000, 0.000000, 1.000000, 0.000000, 0.000000)" width="1030" height="512" class="frame-background"/></g><g class="frame-children"><g id="shape-32eb1c6e-9ee6-8089-8002-f390a2d6fe1c"><defs><linearGradient id="fill-color-gradient_rumext-id-2_0" x1="0.8118466898954704" y1="-0.0684931506849315" x2="0.31010452961672474" y2="1.0593607305936072" gradientTransform="matrix(1.000000, 0.000000, 0.000000, 1.000000, 0.000000, 0.000000)"><stop offset="0" stop-color="#f3f3f3" stop-opacity="0.5125"/><stop offset="1" stop-color="#ffb600" stop-opacity="0.575"/></linearGradient><pattern patternUnits="userSpaceOnUse" x="52" y="187" height="139" width="927" data-loading="false" patternTransform="matrix(1.000000, 0.000000, 0.000000, 1.000000, 0.000000, 0.000000)" id="fill-0-rumext-id-2"><g><rect width="927" height="139" style="fill: url(&quot;#fill-color-gradient_rumext-id-2_0&quot;);"/></g></pattern></defs><g class="fills" id="fills-32eb1c6e-9ee6-8089-8002-f390a2d6fe1c"><path rx="0" ry="0" d="M52.000,227.000L96.000,203.000L243.000,223.000L653.000,187.000L935.000,219.000L979.000,267.000L855.000,314.000L724.260,314.000L533.000,314.000L367.000,314.000L315.000,306.000L187.000,326.000L140.000,275.000L52.000,227.000Z" fill="url(#fill-0-rumext-id-2)"/></g></g></g></g></g></svg>