<svg xmlns:xlink="http://www.w3.org/1999/xlink" width="512" xmlns="http://www.w3.org/2000/svg" height="512" id="screenshot-832be0ff-af2d-80f0-8002-f3114905c744" viewBox="0 0 512 512" style="-webkit-print-color-adjust: exact;" fill="none" version="1.1"><g id="shape-832be0ff-af2d-80f0-8002-f3114905c744"><defs><clipPath class="frame-clip-def frame-clip" id="frame-clip-832be0ff-af2d-80f0-8002-f3114905c744-rumext-id-1"><rect rx="0" ry="0" x="0" y="0" width="512" height="512" transform="matrix(1.000000, 0.000000, 0.000000, 1.000000, 0.000000, 0.000000)"/></clipPath></defs><g clip-path="url(#frame-clip-832be0ff-af2d-80f0-8002-f3114905c744-rumext-id-1)" fill="none"><clipPath class="frame-clip-def frame-clip" id="frame-clip-832be0ff-af2d-80f0-8002-f3114905c744-rumext-id-1"><rect rx="0" ry="0" x="0" y="0" width="512" height="512" transform="matrix(1.000000, 0.000000, 0.000000, 1.000000, 0.000000, 0.000000)"/></clipPath><g class="fills" id="fills-832be0ff-af2d-80f0-8002-f3114905c744"><rect rx="0" ry="0" x="0" y="0" transform="matrix(1.000000, 0.000000, 0.000000, 1.000000, 0.000000, 0.000000)" width="512" height="512" class="frame-background"/></g><g class="frame-children"><g id="shape-832be0ff-af2d-80f0-8002-f3114905c745"><defs><linearGradient id="fill-color-gradient_rumext-id-2_0" x1="0.8118466898954704" y1="-0.0684931506849315" x2="0.31010452961672474" y2="1.0593607305936072" gradientTransform="matrix(1.000000, 0.000000, 0.000000, 1.000000, 0.000000, 0.000000)"><stop offset="0" stop-color="#f3f3f3" stop-opacity="0.5125"/><stop offset="1" stop-color="#ffb600" stop-opacity="0.575"/></linearGradient><pattern patternUnits="userSpaceOnUse" x="124" y="40" height="433" width="278" data-loading="false" patternTransform="matrix(1.000000, 0.000000, 0.000000, 1.000000, 0.000000, 0.000000)" id="fill-0-rumext-id-2"><g><rect width="278" height="433" style="fill: url(&quot;#fill-color-gradient_rumext-id-2_0&quot;);"/></g></pattern></defs><g class="fills" id="fills-832be0ff-af2d-80f0-8002-f3114905c745"><path rx="0" ry="0" d="M124.000,370.000L207.000,177.000L222.000,114.000L231.000,40.000L274.000,125.000L303.000,187.000L389.000,285.000L402.000,382.000L348.000,467.000L282.000,473.000L185.000,467.000L155.791,437.388L124.000,370.000Z" fill="url(#fill-0-rumext-id-2)"/></g></g></g></g></g></svg>