<svg xmlns:xlink="http://www.w3.org/1999/xlink" width="512" xmlns="http://www.w3.org/2000/svg" height="512" id="screenshot-0c18c4ea-9134-8066-8002-f300c9425677" viewBox="0 0 512 512" style="-webkit-print-color-adjust: exact;" fill="none" version="1.1"><g id="shape-0c18c4ea-9134-8066-8002-f300c9425677"><defs><clipPath class="frame-clip-def frame-clip" id="frame-clip-0c18c4ea-9134-8066-8002-f300c9425677-rumext-id-1"><rect rx="0" ry="0" x="0" y="0" width="512" height="512" transform="matrix(1.000000, 0.000000, 0.000000, 1.000000, 0.000000, 0.000000)"/></clipPath></defs><g clip-path="url(#frame-clip-0c18c4ea-9134-8066-8002-f300c9425677-rumext-id-1)" fill="none"><clipPath class="frame-clip-def frame-clip" id="frame-clip-0c18c4ea-9134-8066-8002-f300c9425677-rumext-id-1"><rect rx="0" ry="0" x="0" y="0" width="512" height="512" transform="matrix(1.000000, 0.000000, 0.000000, 1.000000, 0.000000, 0.000000)"/></clipPath><g class="fills" id="fills-0c18c4ea-9134-8066-8002-f300c9425677"><rect rx="0" ry="0" x="0" y="0" transform="matrix(1.000000, 0.000000, 0.000000, 1.000000, 0.000000, 0.000000)" width="512" height="512" class="frame-background"/></g><g class="frame-children"><g id="shape-0c18c4ea-9134-8066-8002-f3014b6721d1"><defs><linearGradient id="fill-color-gradient_rumext-id-2_0" x1="0.7410324092303355" y1="0.02088167053364282" x2="0.1326848570581344" y2="1.0301624129930393" gradientTransform="matrix(1.000000, 0.000000, 0.000000, 1.000000, 0.000000, 0.000000)"><stop offset="0" stop-color="#ffffff" stop-opacity="1"/><stop offset="1" stop-color="#B1B2B5" stop-opacity="0"/></linearGradient><pattern patternUnits="userSpaceOnUse" x="82" y="25.999999999999943" height="431.00000000000006" width="399.44271844660193" data-loading="false" patternTransform="matrix(1.000000, 0.000000, 0.000000, 1.000000, 0.000000, 0.000000)" id="fill-0-rumext-id-2"><g><rect width="399.44271844660193" height="431.00000000000006" style="fill: url(&quot;#fill-color-gradient_rumext-id-2_0&quot;);"/></g></pattern></defs><g class="fills" id="fills-0c18c4ea-9134-8066-8002-f3014b6721d1"><path rx="0" ry="0" d="M389.800,55.025C389.800,55.025,351.948,27.027,247.355,26.027C142.763,25.027,92.957,52.025,92.957,52.025L82.000,70.024L83.992,434.001C83.992,434.001,136.786,457.000,243.371,457.000C349.955,457.000,381.831,431.002,381.831,431.002L382.827,348.007C382.827,348.007,389.800,374.005,431.637,373.005C473.474,372.005,481.443,207.016,481.443,207.016C481.443,207.016,476.462,83.024,433.629,86.023C390.796,89.023,394.781,106.022,394.781,106.022L395.777,73.024C395.777,73.024,340.990,88.023,249.348,86.023C157.705,84.023,124.833,72.024,124.833,72.024L127.821,95.023L145.751,104.022L149.736,402.003L159.697,414.003L166.670,400.004L163.682,105.022L225.441,108.022L219.464,406.003L231.417,430.002L242.375,409.003L241.379,112.022L298.157,109.022L292.181,408.003L306.126,422.002L313.099,108.022L366.889,96.023L368.882,132.020L398.765,134.020C398.765,134.020,409.722,109.022,427.652,110.022C445.583,111.022,454.548,210.016,454.548,210.016C454.548,210.016,441.598,349.007,422.672,352.007C403.746,355.006,387.808,322.008,387.808,322.008L390.796,150.019L378.843,160.019L365.893,409.003C365.893,409.003,345.971,438.001,250.344,435.001C154.717,432.002,113.876,415.003,113.876,415.003L98.934,71.024C98.934,71.024,155.713,38.026,236.398,38.026C317.083,38.026,389.800,55.025,389.800,55.025Z" fill="url(#fill-0-rumext-id-2)"/></g><g id="strokes-0c18c4ea-9134-8066-8002-f3014b6721d1" class="strokes"><g class="stroke-shape"><path rx="0" ry="0" d="M389.800,55.025C389.800,55.025,351.948,27.027,247.355,26.027C142.763,25.027,92.957,52.025,92.957,52.025L82.000,70.024L83.992,434.001C83.992,434.001,136.786,457.000,243.371,457.000C349.955,457.000,381.831,431.002,381.831,431.002L382.827,348.007C382.827,348.007,389.800,374.005,431.637,373.005C473.474,372.005,481.443,207.016,481.443,207.016C481.443,207.016,476.462,83.024,433.629,86.023C390.796,89.023,394.781,106.022,394.781,106.022L395.777,73.024C395.777,73.024,340.990,88.023,249.348,86.023C157.705,84.023,124.833,72.024,124.833,72.024L127.821,95.023L145.751,104.022L149.736,402.003L159.697,414.003L166.670,400.004L163.682,105.022L225.441,108.022L219.464,406.003L231.417,430.002L242.375,409.003L241.379,112.022L298.157,109.022L292.181,408.003L306.126,422.002L313.099,108.022L366.889,96.023L368.882,132.020L398.765,134.020C398.765,134.020,409.722,109.022,427.652,110.022C445.583,111.022,454.548,210.016,454.548,210.016C454.548,210.016,441.598,349.007,422.672,352.007C403.746,355.006,387.808,322.008,387.808,322.008L390.796,150.019L378.843,160.019L365.893,409.003C365.893,409.003,345.971,438.001,250.344,435.001C154.717,432.002,113.876,415.003,113.876,415.003L98.934,71.024C98.934,71.024,155.713,38.026,236.398,38.026C317.083,38.026,389.800,55.025,389.800,55.025Z" style="fill: none; stroke-width: 4; stroke: rgb(0, 0, 0); stroke-opacity: 1;"/></g></g></g></g></g></g></svg>